<?xml version="1.0" encoding="UTF-8" standalone="no"?>
<!-- Created with Inkscape (http://www.inkscape.org/) -->
<svg id="svg3336" xmlns:rdf="http://www.w3.org/1999/02/22-rdf-syntax-ns#" xmlns="http://www.w3.org/2000/svg" height="860" viewBox="0 0 860 860" width="860" version="1.1" xmlns:cc="http://creativecommons.org/ns#" xmlns:dc="http://purl.org/dc/elements/1.1/">
 <metadata id="metadata3342">
  <rdf:RDF>
   <cc:Work rdf:about="">
    <dc:format>image/svg+xml</dc:format>
    <dc:type rdf:resource="http://purl.org/dc/dcmitype/StillImage"/>
    <dc:title/>
   </cc:Work>
  </rdf:RDF>
 </metadata>
 <path id="path3346" fill="#fff" d="m395.58 809.91c-50.91-4.8-103.1-20.66-147.08-44.69-75.92-41.47-135.49-107.42-169.54-187.72-14.475-34.14-24.793-76.81-28.05-116-1.484-17.85-0.601-62.79 1.542-78.5 9.88-72.41 36.548-135.16 81.388-191.5 12.27-15.42 42.24-45.39 57.66-57.66 56.81-45.215 119.19-71.628 192.5-81.511 16.996-2.2912 72.334-2.6057 89-0.50584 79.849 10.061 148.47 40.242 207.46 91.25 11.659 10.081 31.932 30.747 42.129 42.945 46.995 56.221 75.741 122.09 85.958 196.98 2.143 15.707 3.0256 60.646 1.5417 78.5-6.7769 81.539-38.731 157.42-92.206 218.96-43.9 50.521-100.88 88.869-164.02 110.38-24.071 8.2008-48.941 14.012-75.864 17.726-13.758 1.8982-67.321 2.7742-82.422 1.348zm72.667-6.5002c69.969-6.8629 136.57-33.536 192.46-77.081 44.119-34.372 78.96-76.729 104.33-126.83 27.209-53.737 40.075-108 40.075-169 0-42.482-5.4658-77.33-18.246-116.33-34-103.76-110.78-187.08-211.43-229.45-46.38-19.524-93.03-28.796-144.93-28.807-33.15-0.007-59.67 3.109-90 10.575-132.22 32.549-237.53 136.12-272.51 268.01-16.053 60.52-16.355 127.36-0.85551 189 3.3902 13.483 11.831 38.267 18.05 53 37.815 89.583 110.15 161.82 199.79 199.53 58.138 24.454 119.57 33.633 183.27 27.385z"/>
</svg>
