<?xml version="1.0" encoding="UTF-8" standalone="no"?>
<!-- Created with Inkscape (http://www.inkscape.org/) -->
<svg id="svg3336" xmlns:rdf="http://www.w3.org/1999/02/22-rdf-syntax-ns#" xmlns="http://www.w3.org/2000/svg" height="860" viewBox="0 0 860 860" width="860" version="1.1" xmlns:cc="http://creativecommons.org/ns#" xmlns:dc="http://purl.org/dc/elements/1.1/">
 <metadata id="metadata3342">
  <rdf:RDF>
   <cc:Work rdf:about="">
    <dc:format>image/svg+xml</dc:format>
    <dc:type rdf:resource="http://purl.org/dc/dcmitype/StillImage"/>
    <dc:title/>
   </cc:Work>
  </rdf:RDF>
 </metadata>
 <path id="path3346" fill="#fff" d="m389 794.09c-22.28-9.26-82.12-34.05-133-55.09s-93.23-38.99-94.13-39.88-10.64-23.44-21.66-50.12-35.82-86.62-55.122-133.22c-19.298-46.59-35.088-84.94-35.088-85.22 0-0.58 7.849-19.65 44.493-108.06 14.137-34.1 34.707-83.82 45.727-110.5 11.01-26.68 20.76-49.23 21.65-50.12 0.9-0.9 40.55-17.72 88.13-37.4 47.58-19.67 105.18-43.499 128-52.949s44-18.205 47.05-19.455l5.5453-2.274 84.955 35.192c46.72 19.356 106.77 44.206 133.45 55.216 26.675 11.016 49.232 20.762 50.126 21.658 1.34 1.34 111.87 266.76 111.87 268.64 0 0.32336-23.906 58.279-53.125 128.79s-54.023 130.54-55.122 133.41c-1.0983 2.8628-2.7297 5.8354-3.6254 6.6059-0.89 0.76-23.67 10.51-50.62 21.66-26.95 11.14-76.68 31.72-110.5 45.74-96.88 40.13-107 44.28-107.77 44.24-0.4-0.01-18.95-7.61-41.23-16.87zm172.16-43.662c71.136-29.464 130.41-54.101 131.72-54.75 2.4007-1.1903 2.9468-2.431 31.106-70.68 3.7444-9.075 23.279-56.236 43.411-104.8 20.13-48.57 36.6-88.92 36.6-89.67s-19.63-48.77-43.62-106.7c-24-57.93-48.47-117.03-54.38-131.33-8.43-20.37-11.28-26.26-13.13-27.18-10.68-5.32-261.83-108.37-263.37-108.06-3.27 0.646-261.9 107.91-263.12 109.13s-108.48 259.85-109.13 263.17c-0.22472 1.1356 4.5149 13.895 10.586 28.5 12.794 30.78 54.594 131.73 79.894 192.94 9.6607 23.375 18.06 43 18.666 43.611 0.60552 0.61079 31.926 13.855 69.601 29.432s96.4 39.912 130.5 54.079 62.748 25.785 63.662 25.818c0.9139 0.0331 59.864-24.046 131-53.51z"/>
</svg>
